# xmcd
#
# Track frame offsets:
#	150
#	9197
#	27022
#	35822
#	53740
#	69377
#	83037
#	95637
#	112160
#	121677
#	140045
#	152102
#	164517
#	176840
#	191200
#	204605
#
# Disc length: 2971 seconds
#
# Revision: 1
# Processed by: cddbd v1.5.1PL0 Copyright (c) Steve Scherf et al.
# Submitted via: CDex 1.50Beta5
#
DISCID=df0b9910
DTITLE=ホーネッツ - 西部警察PARTI・II・III ハイライト編
DYEAR=1996
DGENRE=Soundtrack
TTITLE0=ホーネッツ/西部警察メインテーマ・TVサイズ
TTITLE1=ホーネッツ/追跡のテーマ
TTITLE2=ホーネッツ/出動のテーマII
TTITLE3=ホーネッツ/マシンXのテーマ
TTITLE4=ホーネッツ/ダイナミック・シチュエイション
TTITLE5=ホーネッツ/コンクリート・ラプソディーII
TTITLE6=ホーネッツ/RUNNING FIGHTERS I
TTITLE7=ホーネッツ/サスペンス
TTITLE8=高橋達也/ワンダフル・ガイズ
TTITLE9=高橋達也/デンジャラス・チェイス
TTITLE10=高橋達也/ジャングル・ヒーロー
TTITLE11=高橋達也/パトカー・コンボイ
TTITLE12=高橋達也/スーパー・チェイサー
TTITLE13=高橋達也/哀愁のエアポート
TTITLE14=高橋達也/スカイライン・フォーメーション
TTITLE15=高橋達也/トワイライト・ストリート
EXTD=
EXTT0=
EXTT1=
EXTT2=
EXTT3=
EXTT4=
EXTT5=
EXTT6=
EXTT7=
EXTT8=
EXTT9=
EXTT10=
EXTT11=
EXTT12=
EXTT13=
EXTT14=
EXTT15=
PLAYORDER=
